<mxfile host="app.diagrams.net" modified="2024-03-26T16:23:37.030Z" agent="Mozilla/5.0 (Windows NT 10.0; Win64; x64) AppleWebKit/537.36 (KHTML, like Gecko) Chrome/123.0.0.0 Safari/537.36" version="24.0.2" etag="1eulWT5Lh3zA4vhL9eDi" type="github">
  <diagram name="PÃ¡gina-1" id="rfu6639g3TOab1qZxgnW">
    <mxGraphModel>
      <root>
        <mxCell id="0" />
        <mxCell id="1" parent="0" />
      </root>
    </mxGraphModel>
  </diagram>
</mxfile>
